<?xml version="1.0" standalone="no"?><!DOCTYPE svg PUBLIC "-//W3C//DTD SVG 1.1//EN" "http://www.w3.org/Graphics/SVG/1.1/DTD/svg11.dtd"><svg t="1727427865096" class="icon" viewBox="0 0 1024 1024" version="1.1" xmlns="http://www.w3.org/2000/svg" p-id="1519" xmlns:xlink="http://www.w3.org/1999/xlink" width="64" height="64"><path d="M486.4 102.4a25.6 25.6 0 1 1 51.2 0v170.666667a25.6 25.6 0 1 1-51.2 0V102.4z m208.213333 42.0864a25.6 25.6 0 0 1 44.373334 25.6l-85.333334 147.797333a25.6 25.6 0 0 1-44.373333-25.6l85.333333-147.797333z m159.300267 140.526933a25.6 25.6 0 0 1 25.6 44.373334l-147.797333 85.333333a25.6 25.6 0 0 1-25.6-44.373333l147.797333-85.333334zM921.6 486.4a25.6 25.6 0 1 1 0 51.2h-170.666667a25.6 25.6 0 1 1 0-51.2h170.666667z m-42.0864 208.213333a25.6 25.6 0 1 1-25.6 44.373334l-147.797333-85.333334a25.6 25.6 0 0 1 25.6-44.373333l147.797333 85.333333z m-140.526933 159.300267a25.6 25.6 0 0 1-44.373334 25.6l-85.333333-147.797333a25.6 25.6 0 0 1 44.373333-25.6l85.333334 147.797333zM537.6 921.6a25.6 25.6 0 1 1-51.2 0v-170.666667a25.6 25.6 0 1 1 51.2 0v170.666667z m-208.213333-42.0864a25.6 25.6 0 1 1-44.373334-25.6l85.333334-147.797333a25.6 25.6 0 0 1 44.373333 25.6l-85.333333 147.797333zM170.0864 738.986667a25.6 25.6 0 0 1-25.6-44.373334l147.797333-85.333333a25.6 25.6 0 0 1 25.6 44.373333l-147.797333 85.333334zM102.4 537.6a25.6 25.6 0 1 1 0-51.2h170.666667a25.6 25.6 0 1 1 0 51.2H102.4z m42.0864-208.213333a25.6 25.6 0 0 1 25.6-44.373334l147.797333 85.333334a25.6 25.6 0 0 1-25.6 44.373333l-147.797333-85.333333zM285.013333 170.0864a25.6 25.6 0 1 1 44.373334-25.6l85.333333 147.797333a25.6 25.6 0 0 1-44.373333 25.6l-85.333334-147.797333z" fill="#6B38A5" p-id="1520"></path></svg>